Patient4_TMGait_0pt2_01_left_21_EMG.mot
version=1
nRows=29
nColumns=33
inDegrees=no
endheader
time	1LAddLong	2LGlutMax	3LGlutMed	4LIliopsoas	5LSemiMemb	6LBicFemLong	7LRecFem	8LVastMed	9LVastLat	10LGasMed	11LTibAnt	12lTibPost	13LPeroneusLong	14LSol	15LExtDigLong	16LFlexDigLong	17RAddLong	18RGlutMax	19RGlutMed	20RIliopsoas	21RSemiMemb	22RBicFemLong	23RRecFem	24RVastMed	25RVastLat	26RGasMed	27RTibAnt	28RTibPost	29RPeroneusLong	30RSol	31RExtDigLong	32RFlexDigLong
49.82	-0.003357	-0.027313	-0.021667	0.009918	0.023804	0.027466	0.035248	0.010986	0.035553	-0.003357	0.003815	-0.001984	0.22369	0.14435	0.024109	-0.012817	0.020294	-0.08194	-0.2536	-0.000916	0.078735	0.018768	0.12482	0.10422	-0.071869	-0.010376	0.12985	0.001221	0.005341	-0.023346	-0.001678	0.003204
49.821	0.00885	-0.005798	0.001831	0.018158	0.013733	0.016937	0.013733	0.004425	0.027924	0.061798	-0.051422	-0.00351	0.33112	0.088654	0.039368	0.00824	0.013275	-0.099945	-0.22903	-0.032501	0.086212	0.019073	0.13321	0.091095	-0.11032	-0.002136	0.14069	0.00061	-0.010986	0.023346	-0.00824	0.008545
49.822	0.001526	-0.021362	-0.012207	0.003204	-0.027924	0.021057	-0.018616	0.004883	-0.042725	0.075989	-0.030975	-0.000458	-0.043488	0.021515	0.041809	-0.004272	0.01358	-0.10086	0.007324	-0.050354	0.077972	0.019073	0.19638	0.13718	-0.10437	-0.000305	-0.37613	0.002594	0.041504	0.03479	-0.002441	-0.006866
49.823	0.010986	-0.005951	-0.00473	-0.013123	-0.089417	-0.003357	0.011902	0.008698	-0.092316	0.13351	0.017853	0.000763	-0.2214	-0.11704	0.05127	-0.015869	0.013733	-0.10056	-0.26886	-0.006409	0.072937	0.013885	-0.022125	0.091858	-0.10559	0.000458	-0.48706	0.000458	0.025177	0.023499	0.003815	-0.006561
49.824	-0.000153	0.023499	0.054779	0.005646	0.002899	-0.024109	-0.004425	0.005188	-0.01709	0.15595	0.00946	0.007019	0.015411	-0.11292	0.049133	-0.032959	0.023804	-0.077972	-0.32105	-0.008698	0.083923	0.001068	-0.30136	0.038452	-0.10498	-0.000916	-0.19913	0.001221	-0.013733	-0.008392	-0.003815	-0.006561
49.825	-0.008087	0.019989	0.052948	-0.001526	0.023956	0.016632	0.041046	-0.006561	0.015564	0.18967	0.023193	-0.005341	-0.064087	-0.065308	0.074463	-0.009918	0.018158	-0.052948	-0.23041	-0.040894	0.090485	0.010376	-0.57373	-0.13687	-0.085297	0.003662	-0.30884	0.002899	0.021057	-0.054016	-0.007629	-0.011597
49.826	-0.003357	0.024872	-0.031281	0.00473	-0.021515	0.011749	0.036621	0.005035	0.000763	0.090485	0.011292	-0.000305	-0.22705	0.060883	0.067139	-0.015106	0.020752	-0.074921	0.14069	-0.062256	0.10498	0.010834	-0.4158	-0.14465	-0.20874	0.001678	-0.32425	0.001526	-0.076447	-0.015717	-0.003357	-0.012207
49.827	-0.010529	-0.005951	-0.029297	0.005035	-0.028381	-0.026703	-0.028992	0.00885	0.009308	0.043793	0.007629	0.004578	-0.23025	0.006561	0.014954	-0.005798	0.020142	-0.029449	0.25742	-0.17273	0.1033	0.005188	-0.17075	0.007782	-0.28519	0.001373	-0.20676	0.003967	-0.13596	-0.030365	-0.007324	-0.014801
49.828	0.007935	-0.011749	-0.023499	0.012665	-0.041351	-0.05661	-0.004272	0.006714	-0.00351	0.039825	0.009613	-0.005035	-0.17364	-0.088501	0.005951	-0.004425	0.02121	-0.058746	0.096741	-0.31677	0.06424	-0.000763	-0.11704	0.032654	-0.29572	-0.000458	-0.08606	0.002289	-0.14389	-0.046844	-0.002289	-0.018463
49.829	0.006104	0.010071	-0.03479	0.015259	0.016632	-0.028839	0.005035	0.005646	-0.003662	-0.054321	0.007019	-0.00412	-0.042877	0.007935	0.02243	-0.013733	0.023956	-0.1001	-0.13336	-0.11459	-0.024261	0.037994	-0.15717	0.17044	-0.37537	0.000458	-0.094299	-0.001831	-0.10498	-0.052032	-0.003967	-0.007324
49.83	0.004883	-0.025177	-0.027924	0.012207	0.015411	0.051575	-0.004883	-0.002747	-0.005493	-0.20432	0.001221	-0.002289	-0.11765	0.04776	0.037079	-0.028229	0.027161	-0.089874	-0.27222	-0.022888	0.039063	0.040283	-0.044708	0.17334	-0.25055	0.007782	0.011444	0.001984	-0.0383	-0.068817	-0.002136	-0.005341
49.831	0.00824	-0.008698	-0.079346	0.005951	0.024261	0.094299	-0.014954	-0.002289	0.046082	-0.12329	-0.005646	-0.004578	0.076599	-0.10849	0.010834	-0.10056	0.012512	-0.049591	-0.23102	0	0.11871	0.044708	-0.020447	0.15472	0.056915	0.00473	0.10941	-0.000458	-0.041504	-0.10346	-0.005798	-0.011139
49.832	0.000763	0.042267	-0.076599	0.002136	0.003204	0.092926	0.039825	0.010376	0.048981	0.14313	0.003815	0.005035	0.14557	-0.31723	0.013275	-0.048218	-0.010681	-0.016022	-0.10361	0.018005	0.24597	0.051422	0.094299	0.00824	0.030365	0.000305	-0.047913	-0.000916	-0.026398	-0.08194	-0.000916	-0.007324
49.833	-0.005646	0.017548	-0.048065	0.012817	-0.011597	0.032196	0.035706	0.009766	0.054626	0.13168	0.003967	0.007935	0.056	-0.12451	0.024261	0.15518	-0.036011	0.013123	0.013733	0.12543	0.12451	0.067902	-0.089417	-0.15762	0.056	-0.007019	0.011902	0.000458	-0.048828	0.023499	-0.003204	-0.008087
49.834	-0.010986	0.013275	0.16266	0.001526	-0.004883	0.005646	-0.02243	0.010529	0.098267	-0.14389	0.014343	-0.004425	0.08316	0.000458	0.014954	-0.11444	-0.037079	0.031891	-0.024872	0.24078	0.12192	0.066528	-0.29297	-0.22186	0.10834	-0.001984	0.14755	-0.002136	-0.080261	0.050964	-0.002136	0.000916
49.835	-0.005188	0.066833	0.22247	0.002594	-0.027466	-0.048828	-0.014496	0.010529	0.13687	-0.088959	0.015259	-0.00412	0.068665	0.039825	-0.009766	0.17548	-0.00885	-0.01709	-0.13641	0.35477	0.15442	0.000305	-0.30182	-0.32272	0.1442	-0.001831	0.080872	0.001526	-0.014191	0.088501	-0.002594	-0.005341
49.836	-0.00473	-0.00351	0.063171	0.002747	0.021667	-0.028992	-0.026093	0.010071	0.16754	-0.066223	0.027161	0.017548	0.003052	-0.053101	-0.015259	0.27878	0.00885	0.039978	-0.062866	0.25467	0.11124	-0.028992	-0.43915	-0.19287	0.14755	-0.001373	0.016022	-0.000305	0.007324	0.092316	0	0.001678
49.837	0.000305	0.025024	-0.001984	0.002441	-0.010071	0.00351	0.001831	0.007477	0.05127	-0.25482	0.02594	0.016785	0.061798	-0.21286	-0.004425	-0.099792	0.029755	0.010071	-0.043182	0.083771	0.096283	-0.035553	-0.34347	0.028687	0.041962	0	0.021362	-0.001526	0.055695	0.042267	-0.003052	0.003357
49.838	0.009766	0.032349	-0.044556	-0.007782	0.015411	0.035248	-0.005951	0.017395	-0.093079	-0.31448	0.028839	0.016327	0.057831	-0.29327	0.00824	-0.15167	0.040894	0.025024	-0.12161	0.067902	0.11704	-0.048981	-0.14404	0.1799	0.097198	-0.004578	0.025482	-0.003204	0.092468	0.03891	-0.002289	-0.002747
49.839	0.021515	0.052643	0.059509	0.013885	0.011597	0.036774	-0.044403	0.022736	-0.068817	-0.15625	0.016785	0.007629	0.10468	-0.26276	0.013123	-0.050201	0.050659	0.015869	-0.1741	-0.001678	0.112	-0.042419	0.049133	0.11276	0.046692	-0.008392	0.031281	-0.003357	0.07019	0.046844	-0.004425	-0.006104
49.84	0.007935	0.023499	0.053253	0.007782	0.010223	0.021362	0.015106	0.017242	-0.019226	0.010986	0.006104	0.008087	-0.057526	0.097198	-0.006714	-0.014801	0.031586	0.018158	-0.13016	-0.005646	0.17777	-0.056	0.10605	0.057678	0.047302	-0.011139	0.067596	-0.001831	-0.001984	0.007019	-0.009918	-0.000305
49.841	0.006256	-0.007477	0.002899	-0.000305	0.014954	0.009155	0.012512	-0.00473	-0.033112	0.083618	0.013428	0.007477	-0.042419	0.17258	-0.014038	-0.029602	0.008392	-0.028687	-0.10803	-0.019531	0.20462	-0.043793	0.17273	0.1239	0.094757	-0.00351	0.004272	-0.001678	-0.06958	-0.044556	-0.003204	-0.008698
49.842	0.005493	0.031586	0.016174	-0.009155	0.006714	0.02533	0.09201	-0.020142	-0.088959	0.048523	0.028381	0.000916	-0.009155	0.082703	-0.020905	-0.012512	0.002289	-0.005493	0.023346	-0.022583	0.061188	-0.02182	0.17242	0.1326	0.097961	-0.006104	0.004425	-0.008545	-0.10757	-0.022583	-0.004272	-0.00885
49.843	0.009613	0.010376	-0.013885	0.00824	-0.055389	0.015259	0.11063	-0.017548	-0.12177	0.006409	0.035095	-0.00061	-0.075836	0.05249	-0.05188	-0.010529	0.000305	-0.012665	0.045471	0.023651	0.12054	-0.029144	0.13367	0.066528	0.070648	-0.004272	0.073853	-0.004425	-0.16708	0.003967	-0.003662	-0.010834
49.844	0.003662	0.038757	0.016174	0.013275	-0.085907	-0.006866	0.066528	-0.00946	-0.16449	-0.012512	0.011292	0.002441	-0.068359	0.013885	-0.013275	-0.026855	-0.012512	-0.034637	0.024719	-0.046082	0.12711	-0.014191	0.11856	-0.003662	0.041199	-0.009155	0.25818	-0.001526	-0.13565	-0.019531	-0.00412	-0.002289
49.845	0.003815	0.013733	0.063019	0.009308	-0.10834	-0.004272	0.074005	0.001068	-0.1532	-0.015869	0.026398	-0.001373	-0.005951	0.061646	0.006866	-0.012512	-0.00473	0.02182	0.093536	-0.058289	0.12619	0.035858	0.007019	-0.063019	0.005798	-0.006104	0.38803	-0.002441	0.053253	-0.079193	-0.006561	-0.014343
49.846	0.009003	0.023804	0.018768	0	0.053558	-0.007019	0.088654	0.000916	-0.072937	-0.028534	0.018005	0.000763	0.082703	0.11719	0.002747	-0.023346	-0.012817	0.02121	0.095062	-0.020905	0.13046	0.049591	-0.19684	-0.099945	-0.025635	-0.012512	0.33157	-0.001831	0.2356	-0.085449	0.000305	-0.012512
49.847	0.005493	0.053864	-0.08606	-0.016479	0.11566	-0.036316	0.034485	0.006561	-0.027924	-0.069733	0.022278	0.007629	0.16617	0.10696	-0.001984	-0.012054	-0.001831	-0.001221	0.057831	-0.1062	0.11459	0.024719	-0.24735	-0.14282	-0.059357	-0.008698	0.03418	-0.003815	0.10803	-0.071106	-0.001526	-0.004578
49.848	0.005341	0.007172	-0.12207	-0.010071	0.071869	-0.030823	-0.030975	0.000153	-0.02533	-0.11169	0.023499	0.000305	0.065308	0.12283	0.006714	-0.012512	0.009918	-0.046387	0.12848	-0.24536	0.11139	0.021667	-0.15228	-0.092773	-0.084991	0.001221	-0.053406	0.000916	0.060272	-0.068359	0.001221	-0.005951
